<svg xmlns="http://www.w3.org/2000/svg" xmlns:xlink="http://www.w3.org/1999/xlink" preserveAspectRatio="xMidYMid" width="517.951" height="403.404" viewBox="0 0 104 81">
  <defs>
    <style>
      .cls-1 {
        fill: #478bd9;
        filter: url(#filter-chain-1);
        fill-rule: evenodd;
      }
    </style>

    <filter id="filter-chain-1" filterUnits="userSpaceOnUse">
      <feOffset dy="2" in="SourceAlpha"/>
      <feGaussianBlur result="dropBlur"/>
      <feFlood flood-color="#fff"/>
      <feComposite operator="in" in2="dropBlur" result="dropShadowComp"/>
      <feComposite in="SourceGraphic" result="shadowed"/>
      <feFlood flood-color="#c0c9d4"/>
      <feComposite operator="in" in2="SourceGraphic"/>
      <feBlend in2="shadowed" result="solidFill"/>
      <feOffset dy="2" in="SourceAlpha"/>
      <feGaussianBlur result="innerShadowBlur"/>
      <feFlood flood-opacity="0.38"/>
      <feComposite operator="out" in2="innerShadowBlur"/>
      <feComposite operator="in" in2="SourceAlpha"/>
      <feBlend mode="softLight" in2="solidFill" result="innerShadow"/>
    </filter>
  </defs>
  <path d="M72.942,80.996 L30.448,80.996 C14.185,80.996 1.000,68.201 1.000,52.046 C1.000,38.131 10.783,26.486 23.889,23.525 C28.110,9.731 41.014,-0.007 56.280,-0.007 C73.152,-0.007 87.140,11.955 89.707,27.997 C97.370,33.279 102.990,42.080 102.990,52.046 C102.990,68.201 89.205,80.996 72.942,80.996 ZM41.296,37.079 C40.327,36.581 38.345,36.048 35.689,36.048 C28.266,36.048 23.279,40.877 23.279,48.064 C23.279,54.966 27.966,59.426 35.219,59.426 C38.032,59.426 40.109,58.890 41.033,58.432 C41.386,58.257 41.577,57.870 41.503,57.486 L40.782,53.781 C40.732,53.526 40.570,53.306 40.341,53.182 C40.111,53.057 39.837,53.041 39.594,53.138 C38.839,53.438 37.374,53.760 35.940,53.760 C32.196,53.760 30.049,51.582 30.049,47.784 C30.049,43.983 32.239,41.714 35.909,41.714 C37.214,41.714 38.449,41.953 39.581,42.425 C39.816,42.522 40.082,42.514 40.311,42.401 C40.539,42.288 40.707,42.082 40.770,41.836 L41.742,38.070 C41.843,37.677 41.659,37.266 41.296,37.079 ZM54.249,36.048 C47.680,36.048 43.092,40.925 43.092,47.908 C43.092,54.708 47.538,59.457 53.904,59.457 C60.739,59.457 65.155,54.778 65.155,47.535 C65.155,40.664 60.772,36.048 54.249,36.048 ZM80.111,64.063 L80.111,61.180 C80.111,60.698 79.718,60.308 79.234,60.308 L75.884,60.308 C77.979,58.402 79.833,56.254 79.833,53.525 C79.833,50.137 77.411,47.949 73.662,47.949 C71.642,47.949 69.647,48.576 68.188,49.670 C67.874,49.906 67.756,50.321 67.901,50.685 L68.899,53.199 C69.000,53.454 69.215,53.647 69.480,53.720 C69.745,53.791 70.030,53.739 70.249,53.572 C71.180,52.865 72.086,52.506 72.942,52.506 C74.023,52.506 74.549,52.938 74.549,53.802 C74.512,55.199 73.019,56.765 69.893,59.542 L67.943,61.295 C67.759,61.460 67.654,61.695 67.654,61.941 L67.654,64.063 C67.654,64.544 68.047,64.935 68.532,64.935 L79.234,64.935 C79.719,64.935 80.112,64.544 80.112,64.063 L80.111,64.063 ZM54.155,53.947 C51.566,53.947 49.893,51.540 49.893,47.815 C49.893,44.929 51.001,41.559 54.123,41.559 C57.046,41.559 58.354,44.638 58.354,47.691 C58.354,50.576 57.254,53.947 54.155,53.947 Z" class="cls-1"/>
</svg>
