<?xml version="1.0" encoding="iso-8859-1"?>
<!-- Generator: Adobe Illustrator 19.1.0, SVG Export Plug-In . SVG Version: 6.00 Build 0)  -->
<svg version="1.1" id="Capa_1" xmlns="http://www.w3.org/2000/svg" xmlns:xlink="http://www.w3.org/1999/xlink" x="0px" y="0px"
	 viewBox="0 0 485.8 485.8" style="enable-background:new 0 0 485.8 485.8;" xml:space="preserve">
<g>
	<g>
		<g>
			<g>
				<path style="fill:#aeb7c1;" d="M240.05,153.8c-49.2,0-89.1,39.9-89.1,89.1s39.9,89.1,89.1,89.1s89.1-39.9,89.1-89.1
					C329.15,193.7,289.25,153.8,240.05,153.8z M265.65,278c-3.9,4.7-8.9,7.9-14.9,9.5c-2.6,0.7-3.7,2.1-3.6,4.7s0,5.3,0,7.9
					c0,2.3-1.2,3.6-3.5,3.7c-2.8,0.1-5.7,0.1-8.5,0c-2.5,0-3.6-1.5-3.7-3.9c0-1.9,0-3.8-0.1-5.8c0-4.2-0.2-4.4-4.3-5.1
					c-5.2-0.8-10.3-2-15.1-4.3c-3.8-1.8-4.1-2.8-3.1-6.7c0.8-2.9,1.6-5.9,2.5-8.8c1.1-3.4,2-3.8,5.1-2.2c5.3,2.8,10.9,4.3,16.8,5
					c3.8,0.5,7.5,0.1,11-1.4c6.5-2.9,7.6-10.5,2-15c-1.9-1.6-4-2.7-6.3-3.7c-5.7-2.5-11.7-4.5-17.2-7.7
					c-8.8-5.3-14.4-12.5-13.7-23.2c0.7-12.1,7.6-19.7,18.7-23.7c4.6-1.7,4.6-1.6,4.6-6.4c0-1.6,0-3.2,0-4.9c0.1-3.6,0.7-4.2,4.3-4.3
					c1.1,0,2.2,0,3.3,0c7.7,0,7.7,0,7.7,7.6c0,5.4,0,5.4,5.4,6.3c4.1,0.6,8.1,1.9,11.9,3.5c2.1,0.9,2.9,2.4,2.3,4.6
					c-1,3.3-1.9,6.6-2.9,9.9c-1,3.1-2,3.5-5,2.1c-6-2.9-12.2-4.1-18.8-3.7c-1.7,0.1-3.4,0.3-5,1c-5.7,2.5-6.6,8.8-1.8,12.7
					c2.5,2,5.3,3.4,8.2,4.6c5,2.1,10.1,4.1,14.9,6.7C272.25,245.8,276.35,265,265.65,278z"/>
			</g>
		</g>
		<g>
			<circle style="fill:#aeb7c1;" cx="110.55" cy="247.4" r="24.7"/>
		</g>
		<g>
			<circle style="fill:#aeb7c1;" cx="369.65" cy="247.4" r="24.7"/>
		</g>
		<g>
			<g>
				<path style="fill:#aeb7c1;" d="M436.75,97.6H48.95c-22.4,0-40.7,18.2-40.7,40.7v209.2c0,22.4,18.2,40.7,40.7,40.7h387.9c22.4,0,40.7-18.2,40.7-40.7
					V138.3C477.45,115.9,459.25,97.6,436.75,97.6z M442.75,305.4c-2.3-0.4-4.8-0.7-7.2-0.7c-22.7,0-41.2,18.4-41.2,41.2
					c0,2.6,0.3,5.1,0.7,7.6H93.95c0.2-1.7,0.3-3.4,0.3-5.1c0-22.7-18.4-41.2-41.2-41.2c-3.5,0-6.9,0.5-10.2,1.3V182.3
					c3.3,0.8,6.7,1.3,10.2,1.3c22.7,0,41.2-18.4,41.2-41.2c0-3.5-0.4-6.8-1.2-10h302c-0.5,2.5-0.7,5-0.7,7.6
					c0,22.7,18.4,41.2,41.2,41.2c2.5,0,4.9-0.2,7.2-0.7L442.75,305.4L442.75,305.4z"/>
			</g>
		</g>
		<g>
			<path style="fill:#aeb7c1;" d="M240.05,485.8c66.4,0,126.5-26.6,170.4-69.8H69.65C113.55,459.2,173.65,485.8,240.05,485.8z"/>
		</g>
		<g>
			<path style="fill:#aeb7c1;" d="M240.05,0c-66.4,0-126.5,26.6-170.4,69.8h340.8C366.55,26.6,306.45,0,240.05,0z"/>
		</g>
	</g>
</g>
</svg>
