<svg xmlns="http://www.w3.org/2000/svg" xmlns:xlink="http://www.w3.org/1999/xlink" preserveAspectRatio="xMidYMid" width="505.997" height="541.269" viewBox="0 0 78.844 84.34">
  <defs>
    <style>
      .cls-1 {
        fill: #000;
        filter: url(#filter-chain-1);
        fill-rule: evenodd;
      }
    </style>

    <filter id="filter-chain-1" filterUnits="userSpaceOnUse">
      <feOffset dy="2" in="SourceAlpha"/>
      <feGaussianBlur result="dropBlur"/>
      <feFlood flood-color="#fff"/>
      <feComposite operator="in" in2="dropBlur" result="dropShadowComp"/>
      <feComposite in="SourceGraphic" result="shadowed"/>
      <feFlood flood-color="#c0c9d4"/>
      <feComposite operator="in" in2="SourceGraphic"/>
      <feBlend in2="shadowed" result="solidFill"/>
      <feOffset dy="2" in="SourceAlpha"/>
      <feGaussianBlur result="innerShadowBlur"/>
      <feFlood flood-opacity="0.38"/>
      <feComposite operator="out" in2="innerShadowBlur"/>
      <feComposite operator="in" in2="SourceAlpha"/>
      <feBlend mode="softLight" in2="solidFill" result="innerShadow"/>
    </filter>
  </defs>
  <path d="M72.026,66.572 L6.816,66.572 C3.040,66.572 -0.015,63.498 -0.015,59.735 L-0.015,24.494 C-0.015,20.715 3.056,17.658 6.816,17.658 L72.009,17.658 C75.786,17.658 78.840,20.732 78.857,24.494 L78.857,59.735 C78.857,63.515 75.786,66.572 72.026,66.572 ZM73.016,31.683 C72.630,31.767 72.227,31.800 71.807,31.800 C67.980,31.800 64.892,28.693 64.892,24.880 C64.892,24.443 64.925,24.023 65.009,23.603 L14.318,23.603 C14.453,24.141 14.520,24.695 14.520,25.283 C14.520,29.113 11.415,32.204 7.604,32.204 C7.017,32.204 6.446,32.120 5.892,31.985 L5.892,53.184 C6.446,53.050 7.017,52.966 7.604,52.966 C11.431,52.966 14.520,56.073 14.520,59.886 C14.520,60.172 14.503,60.457 14.469,60.743 L65.009,60.743 C64.942,60.323 64.892,59.903 64.892,59.466 C64.892,55.636 67.997,52.546 71.807,52.546 C72.210,52.546 72.630,52.596 73.016,52.663 L73.016,31.683 ZM60.746,47.070 C58.456,47.070 56.600,45.212 56.600,42.921 C56.600,40.629 58.456,38.771 60.746,38.771 C63.036,38.771 64.892,40.629 64.892,42.921 C64.892,45.212 63.036,47.070 60.746,47.070 ZM38.693,57.131 C30.434,57.131 23.737,50.429 23.737,42.165 C23.737,33.900 30.434,27.198 38.693,27.198 C46.951,27.198 53.648,33.900 53.648,42.165 C53.648,50.429 46.951,57.131 38.693,57.131 ZM37.937,37.142 C38.206,37.024 38.491,36.991 38.776,36.974 C39.884,36.907 40.925,37.109 41.932,37.596 C42.436,37.831 42.604,37.764 42.771,37.243 C42.939,36.689 43.090,36.134 43.258,35.580 C43.359,35.210 43.224,34.958 42.872,34.807 C42.234,34.538 41.563,34.320 40.875,34.219 C39.968,34.068 39.968,34.068 39.968,33.161 C39.968,31.884 39.968,31.884 38.676,31.884 C38.491,31.884 38.307,31.884 38.122,31.884 C37.518,31.901 37.417,32.002 37.400,32.607 C37.400,32.892 37.400,33.161 37.400,33.430 C37.400,34.236 37.400,34.219 36.628,34.505 C34.765,35.177 33.607,36.453 33.489,38.486 C33.372,40.283 34.312,41.493 35.789,42.383 C36.712,42.921 37.719,43.256 38.676,43.676 C39.062,43.844 39.414,44.029 39.733,44.298 C40.673,45.054 40.488,46.330 39.397,46.818 C38.810,47.070 38.189,47.137 37.551,47.053 C36.561,46.935 35.621,46.683 34.731,46.213 C34.211,45.944 34.060,46.011 33.875,46.582 C33.724,47.070 33.590,47.574 33.456,48.061 C33.288,48.716 33.338,48.884 33.976,49.186 C34.782,49.572 35.638,49.774 36.510,49.908 C37.199,50.026 37.232,50.060 37.232,50.765 C37.249,51.101 37.249,51.420 37.249,51.739 C37.266,52.142 37.450,52.394 37.870,52.394 C38.340,52.411 38.827,52.411 39.297,52.394 C39.683,52.378 39.884,52.159 39.884,51.773 C39.884,51.336 39.901,50.883 39.884,50.446 C39.867,50.009 40.052,49.774 40.488,49.656 C41.496,49.388 42.335,48.850 42.990,48.061 C44.785,45.877 44.097,42.652 41.512,41.174 C40.707,40.737 39.851,40.401 39.011,40.048 C38.525,39.847 38.055,39.611 37.635,39.276 C36.829,38.620 36.980,37.562 37.937,37.142 ZM16.956,47.070 C14.666,47.070 12.810,45.212 12.810,42.921 C12.810,40.629 14.666,38.771 16.956,38.771 C19.246,38.771 21.102,40.629 21.102,42.921 C21.102,45.212 19.246,47.070 16.956,47.070 ZM38.693,1.363 C49.838,1.363 60.226,6.331 67.594,13.588 L9.791,13.588 C17.159,6.331 27.547,1.363 38.693,1.363 ZM38.693,82.966 C27.547,82.966 17.159,77.898 9.791,70.642 L67.594,70.642 C60.226,77.898 49.838,82.966 38.693,82.966 Z" class="cls-1"/>
</svg>
