<svg xmlns="http://www.w3.org/2000/svg" xmlns:xlink="http://www.w3.org/1999/xlink" preserveAspectRatio="xMidYMid" width="502.203" height="525.923" viewBox="0 0 84.031 88">
  <defs>
    <style>
      .cls-1 {
        fill: #000;
        filter: url(#filter-chain-1);
        fill-rule: evenodd;
      }
    </style>

    <filter id="filter-chain-1" filterUnits="userSpaceOnUse">
      <feOffset dy="2" in="SourceAlpha"/>
      <feGaussianBlur result="dropBlur"/>
      <feFlood flood-color="#fff"/>
      <feComposite operator="in" in2="dropBlur" result="dropShadowComp"/>
      <feComposite in="SourceGraphic" result="shadowed"/>
      <feFlood flood-color="#c0c9d4"/>
      <feComposite operator="in" in2="SourceGraphic"/>
      <feBlend in2="shadowed" result="solidFill"/>
      <feOffset dy="2" in="SourceAlpha"/>
      <feGaussianBlur result="innerShadowBlur"/>
      <feFlood flood-opacity="0.38"/>
      <feComposite operator="out" in2="innerShadowBlur"/>
      <feComposite operator="in" in2="SourceAlpha"/>
      <feBlend mode="softLight" in2="solidFill" result="innerShadow"/>
    </filter>
  </defs>
  <path d="M82.039,86.989 L1.991,86.989 C0.891,86.989 -0.001,86.092 -0.001,84.985 L-0.001,44.020 C-0.001,42.914 0.891,42.016 1.991,42.016 L23.069,42.016 L23.069,28.984 C23.069,27.877 23.960,26.980 25.061,26.980 L59.069,26.980 C60.169,26.980 61.061,27.877 61.061,28.984 L61.061,52.008 L82.039,52.008 C83.139,52.008 84.031,52.905 84.031,54.012 L84.031,84.985 C84.031,86.092 83.139,86.989 82.039,86.989 ZM18.693,72.179 C19.872,72.179 20.827,71.218 20.827,70.032 L20.827,63.603 C20.827,62.417 19.872,61.456 18.693,61.456 L12.814,61.456 C11.635,61.456 10.680,62.417 10.680,63.603 C10.680,64.789 11.635,65.750 12.814,65.750 L16.559,65.750 L16.559,67.885 L12.814,67.885 C11.635,67.885 10.680,68.846 10.680,70.032 L10.680,76.332 C10.680,77.518 11.635,78.479 12.814,78.479 L18.693,78.479 C19.872,78.479 20.827,77.518 20.827,76.332 C20.827,75.146 19.872,74.185 18.693,74.185 L14.948,74.185 L14.948,72.179 L18.693,72.179 ZM44.049,39.657 C44.049,38.471 43.094,37.510 41.915,37.510 L39.301,37.510 C38.122,37.510 37.167,38.471 37.167,39.657 C37.167,40.843 38.122,41.804 39.301,41.804 L39.781,41.804 L39.781,48.791 C39.781,49.977 40.736,50.938 41.915,50.938 C43.094,50.938 44.049,49.977 44.049,48.791 L44.049,39.657 ZM73.738,63.603 C73.738,62.417 72.783,61.456 71.604,61.456 L65.724,61.456 C64.546,61.456 63.590,62.417 63.590,63.603 C63.590,64.789 64.546,65.750 65.724,65.750 L69.470,65.750 L69.470,67.885 L65.724,67.885 C64.546,67.885 63.590,68.846 63.590,70.032 C63.590,71.218 64.546,72.179 65.724,72.179 L69.470,72.179 L69.470,74.185 L65.724,74.185 C64.546,74.185 63.590,75.146 63.590,76.332 C63.590,77.518 64.546,78.479 65.724,78.479 L71.604,78.479 C72.783,78.479 73.738,77.518 73.738,76.332 L73.738,63.603 ZM48.227,15.738 L48.688,22.063 C48.724,22.557 48.504,23.035 48.105,23.326 C47.858,23.507 47.565,23.600 47.269,23.600 C47.087,23.600 46.905,23.565 46.731,23.494 L40.894,21.097 L35.057,23.494 C34.602,23.681 34.081,23.617 33.683,23.326 C33.285,23.035 33.064,22.557 33.100,22.063 L33.562,15.738 L29.493,10.894 C29.175,10.515 29.074,9.999 29.227,9.528 C29.379,9.057 29.762,8.698 30.240,8.580 L36.363,7.067 L39.685,1.677 C39.944,1.256 40.402,1.000 40.894,1.000 C41.387,1.000 41.844,1.256 42.103,1.677 L45.426,7.067 L51.548,8.580 C52.026,8.698 52.410,9.057 52.562,9.528 C52.714,9.999 52.613,10.515 52.296,10.894 L48.227,15.738 Z" class="cls-1"/>
</svg>
