<?xml version="1.0" encoding="iso-8859-1"?>
<!-- Generator: Adobe Illustrator 19.0.0, SVG Export Plug-In . SVG Version: 6.00 Build 0)  -->
<svg version="1.1" id="Layer_1" xmlns="http://www.w3.org/2000/svg" xmlns:xlink="http://www.w3.org/1999/xlink" x="0px" y="0px"
	 viewBox="0 0 508 508" style="enable-background:new 0 0 508 508;" xml:space="preserve">
<circle style="fill:#4CDBC4;" cx="254" cy="254" r="254"/>
<path style="fill:#ACB3BA;" d="M372.4,244.8L372.4,244.8c-0.8-0.8-0.8-2.4,0-3.2l21.2-21.2c0.8-0.8,2.4-0.8,3.2,0l0,0
	c0.8,0.8,0.8,2.4,0,3.2l-21.2,21.2C374.8,246,373.6,246,372.4,244.8z"/>
<circle style="fill:#FFFFFF;" cx="402.4" cy="212.4" r="17.6"/>
<path style="fill:#ACB3BA;" d="M135.6,244.8L135.6,244.8c0.8-0.8,0.8-2.4,0-3.2L114,220.4c-0.8-0.8-2.4-0.8-3.2,0l0,0
	c-0.8,0.8-0.8,2.4,0,3.2l21.2,21.2C133.2,246,134.4,246,135.6,244.8z"/>
<g>
	<circle style="fill:#FFFFFF;" cx="105.6" cy="212.4" r="17.6"/>
	<path style="fill:#FFFFFF;" d="M367.2,238.8c-5.2-32.4-9.6-64.8-14.4-98c-0.8-4.8-3.6-9.2-8-11.2c-59.6-27.2-126-27.2-185.6,0
		c-4.4,2-7.2,6.4-8,11.2c-4.4,33.2-9.2,65.6-14,98H367.2z"/>
</g>
<path style="fill:#84DBFF;" d="M144.8,238.8c4.4-28.8,8.8-59.2,12.8-90.4c0.4-2.8,2-4.8,4.4-6c28.8-13.2,59.2-13.2,90-13.2
	s61.2,0,90,13.2c2.4,1.2,4,3.2,4.4,6c4.4,31.2,8.8,61.2,12.8,90.4L144.8,238.8L144.8,238.8z"/>
<path style="fill:#54C0EB;" d="M188,238.8h171.2c-4.4-29.2-8.8-59.2-12.8-90.4c-0.4-2.8-2-4.8-4.4-6c-27.2-12.4-55.6-13.2-84.8-13.2
	L188,238.8z"/>
<g>
	<path style="fill:#324A5E;" d="M386,398.4h-42c-3.6,0-6.4-2.8-6.4-6.4v-98c0-3.6,2.8-6.4,6.4-6.4h42c3.6,0,6.4,2.8,6.4,6.4v98
		C392.4,395.6,389.6,398.4,386,398.4z"/>
	<path style="fill:#324A5E;" d="M160.4,398.4h-42c-3.6,0-6.4-2.8-6.4-6.4v-98c0-3.6,2.8-6.4,6.4-6.4h42c3.6,0,6.4,2.8,6.4,6.4v98
		C166.8,395.6,163.6,398.4,160.4,398.4z"/>
</g>
<path style="fill:#FFFFFF;" d="M396,266c-7.2-42.8-59.6-68.4-117.2-57.2h-0.4c-17.6,3.6-35.6,3.6-53.6,0h-0.4
	C167.6,197.6,115.2,223.2,108,266c-2.4,14,0.8,28.4,7.6,41.6c4.8,9.2,7.2,19.6,7.2,30v24c0,5.6,4.8,10.4,10.4,10.4h237.2
	c5.6,0,10.4-4.8,10.4-10.4v-24c0-10.4,2.4-20.8,7.2-30C395.6,294.4,398.4,280,396,266z"/>
<g>
	
		<ellipse transform="matrix(0.7071 -0.7071 0.7071 0.7071 -101.0914 336.0503)" style="fill:#FF7058;" cx="355.103" cy="290.053" rx="28" ry="17.6"/>
	
		<ellipse transform="matrix(0.7071 0.7071 -0.7071 0.7071 248.6213 -20.4643)" style="fill:#FF7058;" cx="149.013" cy="289.88" rx="28" ry="17.6"/>
</g>
<path style="fill:#E6E9EE;" d="M334.4,326c4.4,5.2-30,35.2-82.4,34.8c-52.4,0-86.8-30-82.4-34.8c3.6-6,38.8,10.8,82.4,10
	C295.6,336.8,330.8,320.4,334.4,326z"/>
<ellipse style="fill:#FFD05B;" cx="252" cy="263.6" rx="16.8" ry="9.6"/>
<g>
</g>
<g>
</g>
<g>
</g>
<g>
</g>
<g>
</g>
<g>
</g>
<g>
</g>
<g>
</g>
<g>
</g>
<g>
</g>
<g>
</g>
<g>
</g>
<g>
</g>
<g>
</g>
<g>
</g>
</svg>
