<?xml version="1.0" encoding="utf-8"?>
<!-- Generator: Adobe Illustrator 15.1.0, SVG Export Plug-In . SVG Version: 6.00 Build 0)  -->
<!DOCTYPE svg PUBLIC "-//W3C//DTD SVG 1.1//EN" "http://www.w3.org/Graphics/SVG/1.1/DTD/svg11.dtd">
<svg version="1.1" id="Layer_1" xmlns="http://www.w3.org/2000/svg" xmlns:xlink="http://www.w3.org/1999/xlink" x="0px" y="0px"
	 width="595.279px" height="841.891px" viewBox="0 0 595.279 841.891" enable-background="new 0 0 595.279 841.891"
	 xml:space="preserve">
<circle fill="#FFD05B" cx="297.64" cy="420.945" r="297.64"/>
<rect x="286.391" y="247.986" fill="#F1543F" width="22.967" height="58.122"/>
<rect x="145.556" y="410.165" fill="#E6E9EE" width="323.169" height="142.96"/>
<rect x="126.556" y="478.164" fill="#48F943" width="324.169" height="74.961"/>
<g>
	<path fill="#FFFFFF" d="M126.556,575.155L126.556,575.155c-15.468,0-28.124-12.655-28.124-28.123V415.789
		c0-15.468,12.656-28.124,28.124-28.124l0,0c15.468,0,28.123,12.656,28.123,28.124v131.712
		C154.679,562.969,142.024,575.155,126.556,575.155z"/>
	<path fill="#FFFFFF" d="M468.725,575.155L468.725,575.155c-15.469,0-28.124-12.655-28.124-28.123V415.789
		c0-15.468,12.655-28.124,28.124-28.124l0,0c15.468,0,28.123,12.656,28.123,28.124v131.712
		C496.848,562.969,484.193,575.155,468.725,575.155z"/>
	<path fill="#FFFFFF" d="M297.64,584.53L297.64,584.53c-23.904,0-43.122-19.218-43.122-43.123V338.45
		c0-23.905,19.218-43.123,43.122-43.123l0,0c23.905,0,43.123,19.217,43.123,43.123v203.426
		C340.763,565.312,321.545,584.53,297.64,584.53z"/>
</g>
<path fill="#E6E9EE" d="M348.731,363.761H247.955c-6.094,0-11.249-5.156-11.249-11.25l0,0c0-6.093,5.155-11.25,11.249-11.25h100.775
	c6.094,0,11.25,5.156,11.25,11.25l0,0C360.449,358.604,355.293,363.761,348.731,363.761z"/>
<path fill="#FF7058" d="M352.012,253.61H243.268c-5.624,0-10.312-4.688-10.312-10.312v-2.343c0-5.625,4.688-10.312,10.312-10.312
	h108.275c5.625,0,10.312,4.687,10.312,10.312v2.343C362.323,248.923,357.637,253.61,352.012,253.61z"/>
</svg>
