<?xml version="1.0" encoding="iso-8859-1"?>
<!-- Generator: Adobe Illustrator 19.0.0, SVG Export Plug-In . SVG Version: 6.00 Build 0)  -->
<svg version="1.1" id="Layer_1" xmlns="http://www.w3.org/2000/svg" xmlns:xlink="http://www.w3.org/1999/xlink" x="0px" y="0px"
	 viewBox="0 0 496.2 496.2" style="enable-background:new 0 0 496.2 496.2;" xml:space="preserve">
<path style="fill:#4ABC96;" d="M496.2,248.1C496.2,111.1,385.1,0,248.1,0S0,111.1,0,248.1s111.1,248.1,248.1,248.1
	S496.2,385.1,496.2,248.1z"/>
<g>
	<path style="fill:#EDC92F;" d="M114.6,344.8c-3,0-5.4-2.4-5.4-5.4v-36c0-3,2.4-5.4,5.4-5.4h23.8c3,0,5.4,2.4,5.4,5.4
		s-2.4,5.4-5.4,5.4H120v30.6C120,342.4,117.6,344.8,114.6,344.8z"/>
	<path style="fill:#EDC92F;" d="M120,328.8v-41.4c0-3-2.4-5.4-5.4-5.4s-5.4,2.4-5.4,5.4v41.4H120z"/>
</g>
<g>
	<path style="fill:#F2F4F4;" d="M117.8,274.4v-12.3c0-1.8-1.5-3.2-3.2-3.2c-1.8,0-3.2,1.5-3.2,3.2v12.3H117.8z"/>
	<path style="fill:#F2F4F4;" d="M106.6,275.4c0.2-1.1,1-2.7,2.3-2.7h11.4c1.2,0,2.1,1.5,2.3,2.7c0.1,1.2,1.5,14.2,1.5,14.2
		c0,1.5-1.2,2.7-2.7,2.7h-13.6c-1.5,0-2.7-1.2-2.7-2.7C105.1,289.6,106.5,276.5,106.6,275.4z"/>
	<ellipse style="fill:#F2F4F4;" cx="114.7" cy="265.7" rx="11.8" ry="2.8"/>
</g>
<g>
	<path style="fill:#EDC92F;" d="M383.8,344.8c3,0,5.4-2.4,5.4-5.4v-36c0-3-2.4-5.4-5.4-5.4H360c-3,0-5.4,2.4-5.4,5.4
		s2.4,5.4,5.4,5.4h18.4v30.6C378.4,342.4,380.8,344.8,383.8,344.8z"/>
	<path style="fill:#EDC92F;" d="M378.4,328.8v-41.4c0-3,2.4-5.4,5.4-5.4s5.4,2.4,5.4,5.4v41.4H378.4z"/>
</g>
<path style="fill:#F2F4F4;" d="M375.9,289.6c0.2,1.1,1,2.7,2.3,2.7h11.4c1.2,0,2.1-1.5,2.3-2.7c0.1-1.2,1.5-14.2,1.5-14.2
	c0-1.5-1.2-2.7-2.7-2.7h-13.6c-1.5,0-2.7,1.2-2.7,2.7C374.3,275.4,375.7,288.5,375.9,289.6z"/>
<rect x="153" y="172.7" style="fill:#E8EAEA;" width="198.4" height="28.9"/>
<rect x="153" y="172.7" style="fill:#FFFFFF;" width="198.4" height="10.9"/>
<rect x="153" y="290.1" style="fill:#E3E5E5;" width="198.4" height="28.9"/>
<rect x="153" y="290" style="fill:#FFFFFF;" width="198.4" height="10.9"/>
<g>
	<path style="fill:#E8EAEA;" d="M160.9,332c0,7.2-4.8,13-10.7,13h-2.7c-5.9,0-10.7-5.8-10.7-13V164.2c0-7.2,4.8-13,10.7-13h2.7
		c5.9,0,10.7,5.8,10.7,13V332z"/>
	<path style="fill:#E8EAEA;" d="M194.5,332c0,7.2-4.8,13-10.7,13h-2.7c-5.9,0-10.7-5.8-10.7-13V164.2c0-7.2,4.8-13,10.7-13h2.7
		c5.9,0,10.7,5.8,10.7,13V332z"/>
	<path style="fill:#E8EAEA;" d="M228,332c0,7.2-4.8,13-10.7,13h-2.7c-5.9,0-10.7-5.8-10.7-13V164.2c0-7.2,4.8-13,10.7-13h2.7
		c5.9,0,10.7,5.8,10.7,13V332z"/>
	<path style="fill:#E8EAEA;" d="M261.5,332c0,7.2-4.8,13-10.7,13h-2.7c-5.9,0-10.7-5.8-10.7-13V164.2c0-7.2,4.8-13,10.7-13h2.7
		c5.9,0,10.7,5.8,10.7,13L261.5,332L261.5,332z"/>
	<path style="fill:#E8EAEA;" d="M295.1,332c0,7.2-4.8,13-10.7,13h-2.7c-5.9,0-10.7-5.8-10.7-13V164.2c0-7.2,4.8-13,10.7-13h2.7
		c5.9,0,10.7,5.8,10.7,13V332z"/>
	<path style="fill:#E8EAEA;" d="M328.6,332c0,7.2-4.8,13-10.7,13h-2.7c-5.9,0-10.7-5.8-10.7-13V164.2c0-7.2,4.8-13,10.7-13h2.7
		c5.9,0,10.7,5.8,10.7,13V332z"/>
	<path style="fill:#E8EAEA;" d="M362.2,332c0,7.2-4.8,13-10.7,13h-2.7c-5.9,0-10.7-5.8-10.7-13V164.2c0-7.2,4.8-13,10.7-13h2.7
		c5.9,0,10.7,5.8,10.7,13V332z"/>
</g>
<g>
	<path style="fill:#FFFFFF;" d="M147.5,151.3c-5.9,0-10.7,5.8-10.7,13V332c0,7.2,4.8,13,10.7,13h1.1V151.3H147.5z"/>
	<path style="fill:#FFFFFF;" d="M181,151.3c-5.9,0-10.7,5.8-10.7,13V332c0,7.2,4.8,13,10.7,13h1.1V151.3H181z"/>
	<path style="fill:#FFFFFF;" d="M214.6,151.3c-5.9,0-10.7,5.8-10.7,13V332c0,7.2,4.8,13,10.7,13h1.1V151.3H214.6z"/>
	<path style="fill:#FFFFFF;" d="M248.1,151.3c-5.9,0-10.7,5.8-10.7,13V332c0,7.2,4.8,13,10.7,13h1.1V151.3H248.1z"/>
	<path style="fill:#FFFFFF;" d="M281.7,151.3c-5.9,0-10.7,5.8-10.7,13V332c0,7.2,4.8,13,10.7,13h1.1V151.3H281.7z"/>
	<path style="fill:#FFFFFF;" d="M315.2,151.3c-5.9,0-10.7,5.8-10.7,13V332c0,7.2,4.8,13,10.7,13h1.1V151.3H315.2z"/>
	<path style="fill:#FFFFFF;" d="M348.7,151.3c-5.9,0-10.7,5.8-10.7,13V332c0,7.2,4.8,13,10.7,13h1.1V151.3H348.7z"/>
</g>
<g>
</g>
<g>
</g>
<g>
</g>
<g>
</g>
<g>
</g>
<g>
</g>
<g>
</g>
<g>
</g>
<g>
</g>
<g>
</g>
<g>
</g>
<g>
</g>
<g>
</g>
<g>
</g>
<g>
</g>
</svg>
