<?xml version="1.0" encoding="iso-8859-1"?>
<!-- Generator: Adobe Illustrator 19.0.0, SVG Export Plug-In . SVG Version: 6.00 Build 0)  -->
<svg version="1.1" id="Layer_1" xmlns="http://www.w3.org/2000/svg" xmlns:xlink="http://www.w3.org/1999/xlink" x="0px" y="0px"
	 viewBox="0 0 504 504" style="enable-background:new 0 0 504 504;" xml:space="preserve">
<circle style="fill:#FFD05B;" cx="252" cy="252" r="252"/>
<polygon style="fill:#334A5E;" points="339.6,411.1 356.6,403 314,313.9 297,322 316.4,362.5 179.2,362.5 198.5,322 181.5,313.9 
	138.9,403 155.9,411.1 169.2,383.3 326.3,383.3 "/>
<path style="fill:#FF7058;" d="M349.6,111c-92-35.9-182.8-7.4-203.6,0c-2.7,1-4.4,3.5-4.4,6.3v210.3c0,3.7,3,6.7,6.7,6.7h198.8
	c3.7,0,6.7-3,6.7-6.7V117.3C353.9,114.6,352.2,112,349.6,111z"/>
<rect x="162.9" y="139.3" style="fill:#FFFFFF;" width="169.8" height="78.6"/>
<rect x="238.9" y="121.8" style="fill:#FF7058;" width="17.8" height="102.7"/>
<circle style="fill:#4CDBC4;" cx="247.8" cy="93.2" r="25.6"/>
<circle style="fill:#324A5E;" cx="247.8" cy="93.2" r="13.7"/>
<polygon style="fill:#4CDBC4;" points="247.8,273.7 141.7,237.1 141.7,253 247.8,289.7 353.9,253.1 353.9,237.1 "/>
<g>
	<circle style="fill:#FFD05B;" cx="317" cy="301.6" r="15.6"/>
	<circle style="fill:#FFD05B;" cx="178.5" cy="301.6" r="15.6"/>
</g>
<g>
</g>
<g>
</g>
<g>
</g>
<g>
</g>
<g>
</g>
<g>
</g>
<g>
</g>
<g>
</g>
<g>
</g>
<g>
</g>
<g>
</g>
<g>
</g>
<g>
</g>
<g>
</g>
<g>
</g>
</svg>
