<?xml version="1.0" encoding="iso-8859-1"?>
<!-- Generator: Adobe Illustrator 19.0.0, SVG Export Plug-In . SVG Version: 6.00 Build 0)  -->
<svg version="1.1" id="Layer_1" xmlns="http://www.w3.org/2000/svg" xmlns:xlink="http://www.w3.org/1999/xlink" x="0px" y="0px"
	 viewBox="0 0 508 508" style="enable-background:new 0 0 508 508;" xml:space="preserve">
<circle style="fill:#84DBFF;" cx="254" cy="254" r="254"/>
<path style="fill:#54C0EB;" d="M38.8,388.8C83.6,460.4,163.2,508,254,508s170.4-47.6,215.2-119.2H38.8z"/>
<polygon style="fill:#2B3B4E;" points="411.6,185.2 365.6,123.6 312.8,185.2 "/>
<polygon style="fill:#324A5E;" points="357.6,185.2 311.6,123.6 258.8,185.2 "/>
<rect x="254" y="261.6" style="fill:#F9B54C;" width="162.4" height="44.4"/>
<path style="fill:#FF7058;" d="M182.8,166.8h-44c-20.4,0-38.8,12-46.8,30.8l-13.2,30.8c-2.8,6.4-4,13.2-4,20.4v64.8H192v-138
	C191.6,170.8,187.6,166.8,182.8,166.8z"/>
<path style="fill:#FFFFFF;" d="M181.6,231.2v-54.4h-42.8c-16.4,0-31.2,9.6-38,24.8L88,231.2L181.6,231.2L181.6,231.2z"/>
<path style="fill:#324A5E;" d="M435.6,332.8H72.4c-9.6,0-17.2-7.6-17.2-17.2l0,0c0-9.6,7.6-17.2,17.2-17.2h363.2
	c9.6,0,17.2,7.6,17.2,17.2l0,0C452.4,324.8,444.8,332.8,435.6,332.8z"/>
<polyline style="fill:#FFD05B;" points="174.4,154 202,154 244.4,275.2 430.8,275.2 430.8,176.8 257.2,176.8 236.4,123.6 
	174.4,123.6 "/>
<circle style="fill:#2B3B4E;" cx="133.2" cy="336" r="52.8"/>
<circle style="fill:#E6E9EE;" cx="133.2" cy="336" r="26"/>
<circle style="fill:#2B3B4E;" cx="353.2" cy="336" r="52.8"/>
<circle style="fill:#E6E9EE;" cx="353.2" cy="336" r="26"/>
<g>
	<polygon style="fill:#F9B54C;" points="296,256.8 258,256.8 236,192 273.6,192 	"/>
	<polygon style="fill:#F9B54C;" points="352.4,256.8 314.8,256.8 292.4,192 330.4,192 	"/>
	<polygon style="fill:#F9B54C;" points="409.2,256.8 371.6,256.8 349.2,192 387.2,192 	"/>
</g>
<polygon style="fill:#E6E9EE;" points="181.6,176.8 146.8,176.8 118.8,231.2 181.6,231.2 "/>
<g>
</g>
<g>
</g>
<g>
</g>
<g>
</g>
<g>
</g>
<g>
</g>
<g>
</g>
<g>
</g>
<g>
</g>
<g>
</g>
<g>
</g>
<g>
</g>
<g>
</g>
<g>
</g>
<g>
</g>
</svg>
