<?xml version="1.0" encoding="iso-8859-1"?>
<!-- Generator: Adobe Illustrator 19.0.0, SVG Export Plug-In . SVG Version: 6.00 Build 0)  -->
<svg version="1.1" id="Layer_1" xmlns="http://www.w3.org/2000/svg" xmlns:xlink="http://www.w3.org/1999/xlink" x="0px" y="0px"
	 viewBox="0 0 508 508" style="enable-background:new 0 0 508 508;" xml:space="preserve">
<circle style="fill:#324A5E;" cx="254" cy="254" r="254"/>
<path style="fill:#FFFFFF;" d="M323.6,288c-0.4,0.8-43.2,65.6-65.2,148.8V268h-8v168.8c-22-83.2-64.8-148-65.2-148.8l-6.8,4.4
	c0.4,0.8,51.2,78,70,171.2c-6.8-3.6-16.8-7.6-22.4-7.6c-9.6,0-16.4,6.4-16.4,15.2c0,8.8,6.8,15.2,16.4,15.2c6,0,17.2-5.2,24-8.4v30
	c1.2,0,2.4,0,3.6,0c1.6,0,2.8,0,4.4,0v-30c6.8,3.6,18,8.4,24,8.4c9.6,0,16.4-6.4,16.4-15.2c0-8.8-6.8-15.2-16.4-15.2
	c-5.6,0-15.2,4.4-22.4,7.6c18.8-93.2,69.6-170.4,70-171.2L323.6,288z M226.4,478.8c-5.2,0-8.4-2.8-8.4-7.2c0-4.4,3.2-7.2,8.4-7.2
	c4,0,12.4,3.6,19.6,7.2C238.8,474.8,230,478.8,226.4,478.8z M282.4,464c5.2,0,8.4,2.8,8.4,7.2c0,4.4-3.2,7.2-8.4,7.2
	c-4,0-12.4-3.6-19.6-7.2C270,468,278.4,464,282.4,464z"/>
<polygon style="fill:#F1543F;" points="337.6,280.8 330.4,277.2 308.8,292.8 336.8,307.6 "/>
<path style="fill:#84DBFF;" d="M451.2,221.2c-24,45.2-82.8,83.6-120.4,64c-37.2-19.6-39.2-90-15.2-135.2s64.4-48.4,101.6-28.8
	C454.8,140.8,474.8,175.6,451.2,221.2z"/>
<ellipse transform="matrix(-0.2959 -0.9552 0.9552 -0.2959 344.1576 512.0195)" style="fill:#FFFFFF;" cx="360.785" cy="129.17" rx="8.4" ry="18"/>
<polygon style="fill:#F9B54C;" points="170.4,280.8 177.6,277.2 199.2,292.8 171.2,307.6 "/>
<path style="fill:#FFD05B;" d="M56.8,221.2c24,45.2,82.8,83.6,120.4,64c37.2-19.6,39.2-90,15.2-135.2S128,101.6,90.8,121.2
	C53.2,140.8,33.2,175.6,56.8,221.2z"/>
<ellipse transform="matrix(-0.7822 -0.623 0.623 -0.7822 17.9911 340.5306)" style="fill:#FFFFFF;" cx="68.515" cy="167.121" rx="8.4" ry="18"/>
<polygon style="fill:#F1543F;" points="258.4,268 250.4,268 238.8,292 270,292 "/>
<path style="fill:#FF7058;" d="M330.8,162.4c0,51.2-34.4,112.8-76.4,112.8C212,274.8,178,213.6,178,162.4s34.4-72.8,76.4-72.8
	C296.8,89.2,330.8,110.8,330.8,162.4z"/>
<ellipse transform="matrix(-0.7071 -0.7071 0.7071 -0.7071 268.8624 357.4366)" style="fill:#FFFFFF;" cx="208.459" cy="123.035" rx="8.4" ry="18"/>
<g>
</g>
<g>
</g>
<g>
</g>
<g>
</g>
<g>
</g>
<g>
</g>
<g>
</g>
<g>
</g>
<g>
</g>
<g>
</g>
<g>
</g>
<g>
</g>
<g>
</g>
<g>
</g>
<g>
</g>
</svg>
