<?xml version="1.0" encoding="iso-8859-1"?>
<!-- Generator: Adobe Illustrator 19.0.0, SVG Export Plug-In . SVG Version: 6.00 Build 0)  -->
<svg version="1.1" id="Layer_1" xmlns="http://www.w3.org/2000/svg" xmlns:xlink="http://www.w3.org/1999/xlink" x="0px" y="0px"
	 viewBox="0 0 473.658 473.658" style="enable-background:new 0 0 473.658 473.658;" xml:space="preserve">
<circle style="fill:#A2D4DE;" cx="236.829" cy="236.829" r="236.829"/>
<path style="fill:#D62127;" d="M90.222,200.847l247.543,4.936c-43.159-53.289-85.85-66.778-126.26-67.582
	C168.563,137.337,121.526,151.559,90.222,200.847z"/>
<g>
	<path style="fill:#A2DADB;" d="M217.798,202.623l99.78,1.993c-33.765-41.689-67.152-52.231-98.763-52.867L217.798,202.623z"/>
	<path style="fill:#A2DADB;" d="M205.798,202.38l-99.78-1.986c35.395-40.309,69.175-49.52,100.801-48.892L205.798,202.38z"/>
</g>
<path style="fill:#D62127;" d="M97.54,277.426c0,0,314.31,6.283,325.207,6.499c7.573,0.146,8.515-15.003,8.515-15.003
	c1.357-68.195-102.334-63.947-102.334-63.947l-238.37-4.757c0,0-18.002,10.344-37.228,13.156
	c-14.252,2.083-19.233,14.139-19.502,27.404C33.492,257.984,44.03,267.83,97.54,277.426z"/>
<path style="fill:#818282;" d="M246.556,274.719c105.621,0.213,183.884-0.269,183.884-0.269s0.086,1.182,0.381,4.506
	c0.366,4.177-1.761,6.997-4.835,6.933L97.821,279.33l-0.49-7.588C129.551,271.117,140.931,274.505,246.556,274.719z"/>
<g>
	<path style="fill:#202121;" d="M400.235,272.426c0.43-21.45-16.608-39.191-38.062-39.617
		c-21.454-0.426-39.184,16.608-39.606,38.062c-0.43,21.45,16.608,39.187,38.054,39.617
		C382.079,310.903,399.805,293.869,400.235,272.426z"/>
	<circle style="fill:#202121;" cx="134.068" cy="267.12" r="38.847"/>
</g>
<g>
	<circle style="fill:#818282;" cx="361.395" cy="271.645" r="18.941"/>
	<circle style="fill:#818282;" cx="134.068" cy="267.12" r="18.945"/>
</g>
<g>
</g>
<g>
</g>
<g>
</g>
<g>
</g>
<g>
</g>
<g>
</g>
<g>
</g>
<g>
</g>
<g>
</g>
<g>
</g>
<g>
</g>
<g>
</g>
<g>
</g>
<g>
</g>
<g>
</g>
</svg>
