<?xml version="1.0" encoding="iso-8859-1"?>
<!-- Generator: Adobe Illustrator 19.0.0, SVG Export Plug-In . SVG Version: 6.00 Build 0)  -->
<svg version="1.1" id="Layer_1" xmlns="http://www.w3.org/2000/svg" xmlns:xlink="http://www.w3.org/1999/xlink" x="0px" y="0px"
	 viewBox="0 0 508 508" style="enable-background:new 0 0 508 508;" xml:space="preserve">
<circle style="fill:#FFD05B;" cx="254" cy="254" r="254"/>
<path style="fill:#F9B54C;" d="M51.2,406.8c7.2,9.6,15.6,19.2,24,27.6C121.2,480,184.4,508,254,508s132.8-28,178.8-73.6
	c8.8-8.4,16.8-18,24-27.6H51.2z"/>
<polygon style="fill:#324A5E;" points="227.2,332 156.4,332 169.2,133.6 214.4,133.6 "/>
<g>
	<polygon style="fill:#FFFFFF;" points="333.2,296.4 333.2,257.2 254,296.4 254,257.2 174.8,296.4 174.8,257.2 96,296.4 96,407.2 
		174.8,407.2 254,407.2 333.2,407.2 412,407.2 412,257.2 	"/>
	<path style="fill:#FFFFFF;" d="M186.4,104.4c0,0,0-0.4-0.4-1.6c0-0.4,0-1.2,0-2s0-1.6,0-2.8c0.4-2,0.8-4.4,2-7.2
		c1.2-2.8,3.2-5.6,6-8s6.4-4.8,10.8-6c1.2-0.4,2-0.4,3.2-0.8c1.2,0,2.4-0.4,3.2-0.4c2,0,4-0.4,6.4-0.4c8.4-0.4,17.6-0.4,26.4-0.4
		c4.4,0,8.8,0,13.6,0c4.4,0,8.8,0.4,13.2,0.4c4,0,8.4,0.8,11.6,0.4s6.4-1.6,8.8-3.2c5.2-3.2,8.4-7.6,9.6-11.2
		c0.4-0.8,0.8-1.6,0.8-2.4c0.4-0.8,0.4-1.2,0.4-2c0.4-1.2,0.4-1.6,0.4-1.6s0,0.4,0.4,1.6c0,0.4,0,1.2,0,2s0,1.6,0,2.8
		c-0.4,2-0.8,4.4-2,7.2c-1.2,2.8-3.2,5.6-6,8s-6.4,4.8-10.8,6l-2,0.8c-0.8,0-1.2,0.4-1.6,0.4h-1.6h-1.6c-2,0-4,0.4-6.4,0.4
		c-4.4,0-8.4,0.4-13.2,0.4c-4.4,0-8.8,0-13.6,0c-8.8,0-18-0.4-26.4-0.4c-2,0-4-0.4-6.4-0.4c-1.2,0-2,0-2.8,0s-1.6,0-2.4,0
		c-3.2,0.4-6.4,1.6-8.8,3.2c-5.2,3.2-8.4,7.6-9.6,11.2c-0.4,0.8-0.8,1.6-0.8,2.4c-0.4,0.8-0.4,1.2-0.4,2
		C186.4,104,186.4,104.4,186.4,104.4z"/>
	<path style="fill:#FFFFFF;" d="M196.4,122c0,0,0-0.4,0-1.6c0-0.4,0-1.2,0-2s0-1.6,0-2.4c0.4-2,0.8-4.4,2-6.8s2.8-5.2,5.6-7.6
		s6-4.4,10-5.6c1.2-0.4,2-0.4,3.2-0.4s2-0.4,3.2-0.4c2,0,4,0,5.6-0.4c8-0.4,16.4-0.4,24.4-0.4c8.4,0,16.8,0,24.4,0.4
		c4,0,8,0.4,10.8,0.4c2.8-0.4,6-1.2,8.4-2.8c4.8-2.8,7.6-7.2,8.8-10.4c0.4-0.8,0.8-1.6,0.8-2.4c0.4-0.8,0.4-1.2,0.4-1.6
		c0.4-0.8,0.4-1.6,0.4-1.6s0,0.4,0,1.6c0,0.4,0,1.2,0,2s0,1.6,0,2.4c0,2-0.8,4.4-2,6.8s-2.8,5.2-5.6,7.6c-2.8,2.4-6,4.4-10,5.6
		l-1.6,0.4c-0.4,0-1.2,0.4-1.6,0.4h-1.2h-1.6c-2,0-4,0-5.6,0.4c-8,0.4-16.4,0.4-24.4,0.4c-8.4,0-16.8,0-24.4-0.4c-2,0-4,0-5.6-0.4
		c-1.2,0-1.6,0-2.4,0c-0.8,0-1.6,0-2.4,0c-3.2,0.4-6,1.2-8.4,2.8c-4.8,2.8-7.6,7.2-8.8,10.4c-0.4,0.8-0.8,1.6-0.8,2.4
		c-0.4,0.8-0.4,1.2-0.4,1.6C196.4,121.6,196.4,122,196.4,122z"/>
</g>
<g>
	<rect x="361.2" y="315.2" style="fill:#84DBFF;" width="28.8" height="15.6"/>
	<rect x="281.6" y="315.2" style="fill:#84DBFF;" width="28.8" height="15.6"/>
	<rect x="201.6" y="315.2" style="fill:#84DBFF;" width="28.8" height="15.6"/>
	<rect x="122" y="315.2" style="fill:#84DBFF;" width="28.8" height="15.6"/>
	<rect x="361.2" y="344.4" style="fill:#84DBFF;" width="28.8" height="15.6"/>
	<rect x="281.6" y="344.4" style="fill:#84DBFF;" width="28.8" height="15.6"/>
	<rect x="201.6" y="344.4" style="fill:#84DBFF;" width="28.8" height="15.6"/>
	<rect x="122" y="344.4" style="fill:#84DBFF;" width="28.8" height="15.6"/>
</g>
<g>
</g>
<g>
</g>
<g>
</g>
<g>
</g>
<g>
</g>
<g>
</g>
<g>
</g>
<g>
</g>
<g>
</g>
<g>
</g>
<g>
</g>
<g>
</g>
<g>
</g>
<g>
</g>
<g>
</g>
</svg>
