<?xml version="1.0" encoding="iso-8859-1"?>
<!-- Generator: Adobe Illustrator 19.0.0, SVG Export Plug-In . SVG Version: 6.00 Build 0)  -->
<svg version="1.1" id="Layer_1" xmlns="http://www.w3.org/2000/svg" xmlns:xlink="http://www.w3.org/1999/xlink" x="0px" y="0px"
	 viewBox="0 0 508 508" style="enable-background:new 0 0 508 508;" xml:space="preserve">
<circle style="fill:#FD8469;" cx="254" cy="254" r="254"/>
<circle style="fill:#2C9984;" cx="254" cy="254" r="198.4"/>
<circle style="fill:#FFD05B;" cx="254" cy="254" r="198.4"/>
<circle style="fill:#FFFFFF;" cx="254" cy="254" r="162"/>
<circle style="fill:#FFD05B;" cx="254" cy="254" r="142.8"/>
<path style="fill:#FFFFFF;" d="M254,239.6c-12,0-21.6-9.6-21.6-21.6c0-11.2,8.8-20.8,20-21.6c0.4,0,1.2,0,1.6,0c0.4,0,1.2,0,1.6,0
	c5.6,0.4,10.4,2.8,14,6.8c5.6,5.6,14.4,6,20.4,0.8c5.6-5.6,6-14.4,0.8-20.4c-6-6.4-14-11.2-22.4-13.6v-10c0-8-6.4-14.4-14.4-14.4
	s-14.4,6.4-14.4,14.4v10c-20.8,6.4-36,25.6-36,48.4c0,27.6,22.8,50.4,50.4,50.4c12,0,21.6,9.6,21.6,21.6c0,11.2-8.8,20.8-20,21.6
	c-0.4,0-1.2,0-1.6,0s-1.2,0-1.6,0c-5.6-0.4-10.4-2.8-14-6.8c-5.6-5.6-14.4-6-20.4-0.8c-5.6,5.6-6,14.4-0.8,20.4
	c6,6.4,14,11.2,22.4,13.6v10c0,8,6.4,14.4,14.4,14.4c8,0,14.4-6.4,14.4-14.4v-10c20.8-6.4,36-25.6,36-48.4
	C304.4,262.4,281.6,239.6,254,239.6z"/>
<g>
</g>
<g>
</g>
<g>
</g>
<g>
</g>
<g>
</g>
<g>
</g>
<g>
</g>
<g>
</g>
<g>
</g>
<g>
</g>
<g>
</g>
<g>
</g>
<g>
</g>
<g>
</g>
<g>
</g>
</svg>
