<?xml version="1.0" encoding="iso-8859-1"?>
<!-- Generator: Adobe Illustrator 19.0.0, SVG Export Plug-In . SVG Version: 6.00 Build 0)  -->
<svg version="1.1" id="Layer_1" xmlns="http://www.w3.org/2000/svg" xmlns:xlink="http://www.w3.org/1999/xlink" x="0px" y="0px"
	 viewBox="0 0 508 508" style="enable-background:new 0 0 508 508;" xml:space="preserve">
<circle style="fill:#FFD05B;" cx="254" cy="254" r="254"/>
<path style="fill:#FFFFFF;" d="M366,421.6H142c-13.6,0-24.4-10.8-24.4-24.4V110.8c0-13.6,10.8-24.4,24.4-24.4h224
	c13.6,0,24.4,10.8,24.4,24.4v286.4C390.4,410.8,379.6,421.6,366,421.6z"/>
<path style="fill:#E6E9EE;" d="M283.2,325.2h-58.4c-3.6,0-6.8-2.8-6.8-6.8V189.2c0-3.6,2.8-6.8,6.8-6.8h58.4c3.6,0,6.8,2.8,6.8,6.8
	v129.6C290,322.4,286.8,325.2,283.2,325.2z"/>
<path style="fill:#CED5E0;" d="M218,243.6v75.2c0,3.6,2.8,6.4,6.4,6.4h58.4c3.6,0,6.4-2.8,6.4-6.4v-75.2H218z"/>
<path style="fill:#ACB3BA;" d="M218,300v18.8c0,3.6,2.8,6.4,6.4,6.4h58.4c3.6,0,6.4-2.8,6.4-6.4V300H218z"/>
<g>
	<circle style="fill:#E6E9EE;" cx="357.2" cy="122.8" r="10.8"/>
	<circle style="fill:#E6E9EE;" cx="150.8" cy="122.8" r="10.8"/>
	<circle style="fill:#E6E9EE;" cx="357.2" cy="385.2" r="10.8"/>
	<circle style="fill:#E6E9EE;" cx="150.8" cy="385.2" r="10.8"/>
</g>
<g>
	<path style="fill:#4CDBC4;" d="M243.2,158.8c-2.4,2-4.8,3.2-8,3.2s-6-1.2-8-3.2c-2.4-2-3.2-4.8-3.2-8s1.2-6,3.2-8
		c2.4-2,4.8-3.2,8-3.2s6,1.2,8,3.2c2.4,2,3.2,4.8,3.2,8S245.2,156.8,243.2,158.8z M241.6,150.8c0-2-0.8-3.6-2-4.8s-2.8-2-4.4-2
		c-2,0-3.2,0.8-4.4,2s-2,3.2-2,4.8c0,2,0.8,3.6,2,4.8s2.8,2,4.4,2c2,0,3.2-0.8,4.4-2C240.8,154.4,241.6,152.8,241.6,150.8z"/>
	<path style="fill:#4CDBC4;" d="M265.6,140v4.4h-10v4.8h9.6v4.4h-9.6v8.4h-4.8v-21.6h14.8V140z"/>
	<path style="fill:#4CDBC4;" d="M284.4,140v4.4h-10v4.8h9.6v4.4h-9.6v8.4h-4.8v-21.6h14.8V140z"/>
</g>
<g>
	<path style="fill:#FF7058;" d="M249.2,366.8c-2.8,2.8-6,4-10,4s-7.2-1.2-10-4s-4-6-4-9.6c0-4,1.2-7.2,4-9.6c2.8-2.8,6-4,10-4
		s7.2,1.2,10,4s4,6,4,9.6S252,364.4,249.2,366.8z M247.2,357.2c0-2.4-0.8-4.4-2.4-6c-1.6-1.6-3.2-2.4-5.6-2.4s-4,0.8-5.6,2.4
		s-2.4,3.6-2.4,6s0.8,4.4,2.4,6c1.6,1.6,3.2,2.4,5.6,2.4s4-0.8,5.6-2.4C246.4,361.6,247.2,359.6,247.2,357.2z"/>
	<path style="fill:#FF7058;" d="M276.8,344h6v26.4h-6L264,354v16.4h-6V344h5.6l12.8,17.2V344H276.8z"/>
</g>
<g>
</g>
<g>
</g>
<g>
</g>
<g>
</g>
<g>
</g>
<g>
</g>
<g>
</g>
<g>
</g>
<g>
</g>
<g>
</g>
<g>
</g>
<g>
</g>
<g>
</g>
<g>
</g>
<g>
</g>
</svg>
