<?xml version="1.0" encoding="iso-8859-1"?>
<!-- Generator: Adobe Illustrator 19.0.0, SVG Export Plug-In . SVG Version: 6.00 Build 0)  -->
<svg version="1.1" id="Layer_1" xmlns="http://www.w3.org/2000/svg" xmlns:xlink="http://www.w3.org/1999/xlink" x="0px" y="0px"
	 viewBox="0 0 508 508" style="enable-background:new 0 0 508 508;" xml:space="preserve">
<circle style="fill:#90DFAA;" cx="254" cy="254" r="254"/>
<path style="fill:#FFFFFF;" d="M380.8,264.4v-21.6l-18.4-4c-0.4-3.6-1.2-7.2-2-10.8c-10.4,0.8-20.8-0.8-30.4-4.4
	c3.6,9.6,6,19.6,6,30.4c0,45.2-36.8,82-82,82s-82-36.8-82-82s36.8-82,82-82c10.8,0,21.2,2,30.4,6c-3.6-10-5.2-20.4-4.4-30.4
	c-4-0.8-8-1.6-12-2.4l-4-18.4h-22l-4,18.4c-4.4,0.8-9.2,1.6-13.2,2.8l-10.4-15.6l-20,8.4l3.6,18.8c-3.6,2-7.2,4.4-10.4,7.2
	L174,156.4l-16.8,14l9.2,16.8c-2.8,3.6-5.6,7.6-7.6,11.6l-16-4.4l-10,19.2l14.8,12c-1.2,4.4-2,8.8-2.8,13.6l-16.8,2l-2,21.6
	l18.4,5.6c0.4,4.8,1.6,9.2,2.8,13.6l-14.8,8.4l6.4,20.8l19.2-2c2.4,4,4.8,8,7.6,11.6l-10,13.2l14,16.8l16.8-9.2
	c3.6,2.8,7.6,5.6,11.6,7.6l-4.4,16l19.2,10l12-14.8c4.4,1.2,8.8,2,13.6,2.8l2,16.8l21.6,2l5.6-18.4c4.8-0.4,9.2-1.6,13.6-2.8
	l8.4,14.8l20.8-6.4l-2-19.2c4.4-2.4,8.4-5.2,12.4-8.4l15.6,10.4l15.2-15.2l-10.4-16c2.8-3.6,5.2-7.6,7.6-11.2l18.4,3.6l8.4-20
	L360,282c1.2-4.4,2-8.8,2.4-13.6L380.8,264.4z"/>
<g>
	<path style="fill:#324A5E;" d="M225.2,360.4c1.2,0.4,2,0.4,3.2,0.8c-1.2,17.6-8.8,34.8-22,48c-20.4,20.4-49.6,26.8-75.2,19.2l42-42
		l-14.8-37.2l-37.2-14.8l-42,42.4c-7.6-25.6-1.2-54.8,19.2-75.2c13.6-13.6,30.4-20.8,48-22c0,0.8,0.4,1.6,0.8,2.8l-14.8,8.4
		l6.4,20.8l19.2-2c2.4,4,4.8,8,7.6,11.6l-10,12.8l14,16.8l16.8-9.2c3.6,2.8,7.6,5.6,11.6,7.6l-4.4,16l19.2,10L225.2,360.4z"/>
	<path style="fill:#324A5E;" d="M409.6,206.4c-22.8,22.8-56.4,28-84.4,16L222,325.2c0.8,2,1.6,4,2.4,6
		c-21.6-8.4-39.2-25.6-47.6-47.6c2,0.8,4,1.2,6,2.4L286,182.8c-12-28-6.8-61.6,16-84.4c20.4-20.4,49.6-26.8,75.2-19.2l-42.4,42
		l14.8,37.2l37.2,14.8l42-42C436.4,156.8,430,186,409.6,206.4z"/>
</g>
<g>
</g>
<g>
</g>
<g>
</g>
<g>
</g>
<g>
</g>
<g>
</g>
<g>
</g>
<g>
</g>
<g>
</g>
<g>
</g>
<g>
</g>
<g>
</g>
<g>
</g>
<g>
</g>
<g>
</g>
</svg>
